Coordinates
version=1
nRows=27
nColumns=38
inDegrees=no

Units are S.I. units (second, meters, Newtons, ...)
If the header above contains a line with 'inDegrees', this indicates whether rotational values are in degrees (yes) or radians (no).

endheader
time	pelvis_tilt	pelvis_list	pelvis_rotation	pelvis_tx	pelvis_ty	pelvis_tz	hip_flexion_r	hip_adduction_r	hip_rotation_r	knee_angle_r	ankle_angle_r	subtalar_angle_r	mtp_angle_r	hip_flexion_l	hip_adduction_l	hip_rotation_l	knee_angle_l	ankle_angle_l	subtalar_angle_l	mtp_angle_l	lumbar_extension	lumbar_bending	lumbar_rotation	arm_flex_r	arm_add_r	arm_rot_r	elbow_flex_r	pro_sup_r	wrist_flex_r	wrist_dev_r	arm_flex_l	arm_add_l	arm_rot_l	elbow_flex_l	pro_sup_l	wrist_flex_l	wrist_dev_l
3.18	-1.07655	1.52093	0.117095	0.870498	0.494729	0.936611	0.572064	-0.0973252	-0.0248744	0.538961	0.0856832	0	0	-0.165369	-0.110575	0.21674	0.27264	0.305781	0	0	-0.0403149	0.101512	0.154014	0.25952	-0.214923	-0.211206	1.15716	1.5708	0	0	-0.162041	-0.0935808	0.0295954	0.360048	1.03371	0	0
3.19	-1.07239	1.52245	0.116145	0.871269	0.488024	0.935631	0.559949	-0.104666	-0.0419374	0.524801	0.0795822	0	0	-0.172875	-0.11337	0.219442	0.271915	0.306393	0	0	-0.037013	0.101891	0.152078	0.246752	-0.218684	-0.219491	1.17304	1.5708	0	0	-0.165705	-0.0904452	0.0170007	0.350293	1.03657	0	0
3.2	-1.07005	1.52468	0.120058	0.872304	0.481299	0.93475	0.547612	-0.115077	-0.0654468	0.513729	0.0727184	0	0	-0.179214	-0.116116	0.226142	0.272171	0.306385	0	0	-0.0330225	0.101604	0.147019	0.233065	-0.222317	-0.226528	1.18922	1.5708	0	0	-0.170236	-0.0882091	0.00751145	0.342254	1.03735	0	0
3.21	-1.22526	1.52543	0.312883	0.878854	0.477937	0.933154	0.535214	-0.152594	-0.130984	0.504726	0.0685439	0	0	-0.165272	-0.114934	0.276504	0.286985	0.309448	0	0	-0.0141683	0.109276	0.111589	0.212371	-0.237151	-0.231971	1.21149	1.5708	0	0	-0.177649	-0.0771126	0.00188813	0.331543	1.03734	0	0
3.22	-1.23227	1.5277	0.322345	0.879414	0.47053	0.932438	0.522339	-0.158972	-0.149586	0.496363	0.0585316	0	0	-0.172087	-0.1184	0.278194	0.28732	0.307817	0	0	-0.0105687	0.108283	0.109176	0.198075	-0.239302	-0.237981	1.22823	1.5708	0	0	-0.184327	-0.076104	-0.00588143	0.328249	1.03685	0	0
3.23	-1.25919	1.52941	0.351243	0.879929	0.46278	0.931753	0.510197	-0.164455	-0.168696	0.490116	0.0511637	0	0	-0.177624	-0.122247	0.279869	0.288824	0.305629	0	0	-0.0052058	0.107267	0.107196	0.1828	-0.240864	-0.244121	1.24393	1.5708	0	0	-0.194235	-0.0777456	0.00139011	0.331975	1.01171	0	0
3.24	-1.29441	1.52877	0.38739	0.880275	0.455084	0.931262	0.496323	-0.165266	-0.175592	0.469754	0.0303817	0	0	-0.180933	-0.12779	0.281856	0.292416	0.30281	0	0	-0.000223465	0.109013	0.104857	0.168157	-0.242883	-0.249029	1.26142	1.5708	0	0	-0.199369	-0.0739107	-0.0254159	0.323854	1.03958	0	0
3.25	-1.3265	1.53044	0.421788	0.880787	0.446954	0.930761	0.483519	-0.170749	-0.198049	0.466842	0.0291411	0	0	-0.185364	-0.131394	0.285465	0.296134	0.298765	0	0	0.00489952	0.107837	0.100635	0.152865	-0.243407	-0.254359	1.27797	1.5708	0	0	-0.209397	-0.0741735	-0.0313206	0.326118	1.03952	0	0
3.26	-1.36393	1.53149	0.46136	0.881242	0.438466	0.930363	0.469211	-0.174649	-0.221829	0.46232	0.0295927	0	0	-0.189183	-0.135859	0.28751	0.300508	0.293701	0	0	0.0109144	0.106905	0.0968769	0.136186	-0.243331	-0.261003	1.29424	1.5708	0	0	-0.219911	-0.0746838	-0.0343638	0.328788	1.04083	0	0
3.27	-1.40748	1.53175	0.507583	0.881737	0.429753	0.930061	0.452931	-0.17726	-0.24804	0.454557	0.0307764	0	0	-0.191273	-0.140879	0.28932	0.307183	0.288123	0	0	0.0179499	0.106524	0.0930225	0.118122	-0.24271	-0.268319	1.31056	1.5708	0	0	-0.230342	-0.0755093	-0.0364166	0.331559	1.04265	0	0
3.28	-1.43821	1.53139	0.541361	0.882105	0.420741	0.929885	0.434141	-0.17827	-0.277029	0.442968	0.0312321	0	0	-0.191955	-0.146628	0.292	0.317057	0.282142	0	0	0.0250456	0.106446	0.0888708	0.0995681	-0.240533	-0.275681	1.32667	1.5708	0	0	-0.240731	-0.0774045	-0.0372034	0.334313	1.04526	0	0
3.29	-1.47926	1.53045	0.585582	0.882324	0.411424	0.929728	0.41442	-0.177938	-0.30726	0.427394	0.0294803	0	0	-0.190223	-0.152683	0.294108	0.33001	0.275605	0	0	0.0333821	0.105893	0.0842062	0.0806848	-0.2367	-0.28251	1.34187	1.5708	0	0	-0.25157	-0.0799945	-0.0383847	0.33767	1.0464	0	0
3.3	-1.57191	1.53031	0.678381	0.882162	0.401712	0.929392	0.400732	-0.179272	-0.346654	0.426181	0.0346565	0	0	-0.186547	-0.156033	0.293074	0.345054	0.267721	0	0	0.0431042	0.102575	0.0822531	0.0619034	-0.231365	-0.288918	1.35568	1.5708	0	0	-0.262548	-0.0835741	-0.0409752	0.340675	1.04562	0	0
3.31	-1.55904	1.5276	0.664362	0.8818	0.391607	0.929611	0.382713	-0.172323	-0.371976	0.40748	0.0134436	0	0	-0.184082	-0.16452	0.288032	0.362084	0.258132	0	0	0.0509798	0.104206	0.0821354	0.0422834	-0.226293	-0.294954	1.36833	1.5708	0	0	-0.271169	-0.0854454	-0.0506733	0.339914	1.05473	0	0
3.32	-1.64298	1.52258	0.741293	0.880504	0.381928	0.929648	0.379571	-0.164421	-0.383384	0.398704	-0.0117302	0	0	-0.172203	-0.169907	0.278782	0.38712	0.247859	0	0	0.0621327	0.105035	0.0887786	0.0233869	-0.221319	-0.300873	1.37882	1.5708	0	0	-0.280943	-0.0900351	-0.0325624	0.348065	1.02238	0	0
3.33	-1.74221	1.51657	0.82901	0.878579	0.372699	0.929909	0.389349	-0.155896	-0.368561	0.424137	0.0176764	0	0	-0.155535	-0.173044	0.266095	0.417536	0.235266	0	0	0.0727965	0.105945	0.0991334	0.00733092	-0.217319	-0.304766	1.38676	1.5708	0	0	-0.284879	-0.0903888	-0.0361217	0.346397	1.03096	0	0
3.34	-1.78469	1.51289	0.860488	0.876953	0.363198	0.93069	0.391417	-0.147193	-0.364251	0.428044	0.0113256	0	0	-0.141644	-0.176016	0.253243	0.449709	0.219354	0	0	0.0802591	0.106895	0.108627	-0.0089686	-0.212499	-0.308736	1.39473	1.5708	0	0	-0.289431	-0.0910993	-0.0378774	0.346413	1.03643	0	0
3.35	-1.75615	1.51279	0.824448	0.875851	0.353429	0.932058	0.380649	-0.13737	-0.374736	0.406183	-0.0363184	0	0	-0.131704	-0.179716	0.243339	0.48361	0.199116	0	0	0.0832019	0.107773	0.113656	-0.0245599	-0.206535	-0.312041	1.40148	1.5708	0	0	-0.294616	-0.0921939	-0.0392617	0.346446	1.04233	0	0
3.36	-1.8964	1.51886	0.956731	0.874381	0.344661	0.934154	0.381712	-0.138158	-0.344968	0.432535	0.0106312	0	0	-0.10937	-0.176558	0.202799	0.527352	0.170286	0	0	0.084869	0.0957138	0.119149	-0.0354364	-0.197201	-0.314675	1.40139	1.5708	0	0	-0.295635	-0.0937108	-0.0427911	0.343812	1.04922	0	0
3.37	-1.77178	1.51414	0.826938	0.873682	0.335132	0.934505	0.369445	-0.119274	-0.355083	0.408958	-0.0347507	0	0	-0.0965294	-0.17759	0.232395	0.571139	0.150392	0	0	0.0880197	0.105073	0.118589	-0.0503799	-0.194798	-0.313835	1.41499	1.5708	0	0	-0.303927	-0.0916005	-0.0485755	0.350365	1.05421	0	0
3.38	-1.78936	1.51222	0.839405	0.872506	0.326854	0.935411	0.369103	-0.106515	-0.325246	0.430654	0.0222176	0	0	-0.0683683	-0.17476	0.23244	0.627643	0.126568	0	0	0.0910328	0.105727	0.118817	-0.0618827	-0.190006	-0.314632	1.42425	1.5708	0	0	-0.308434	-0.0899086	-0.0521378	0.357653	1.05928	0	0
3.39	-1.44885	1.53248	0.493734	0.871489	0.316187	0.939903	0.318644	-0.0978617	-0.3375	0.38717	-0.0256417	0	0	-0.0795775	-0.165171	0.234166	0.66621	0.089023	0	0	0.0655658	0.0955851	0.118872	-0.0687237	-0.17771	-0.315559	1.42358	1.5708	0	0	-0.310701	-0.0939489	-0.0519539	0.362636	1.06018	0	0
3.4	-1.54408	1.51366	0.599896	0.871716	0.31067	0.938006	0.324145	-0.0798793	-0.345791	0.384142	-0.0187829	0	0	-0.0218632	-0.171446	0.249653	0.748153	0.0774605	0	0	0.0804391	0.112887	0.101264	-0.0819574	-0.182593	-0.316228	1.44615	1.5708	0	0	-0.320844	-0.0915689	-0.0201508	0.387222	1.00432	0	0
3.41	-1.40704	1.50498	0.464346	0.871615	0.303435	0.938053	0.307825	-0.0596803	-0.350077	0.373581	-0.0115584	0	0	-0.00687587	-0.173381	0.266005	0.791549	0.0586007	0	0	0.0762247	0.127163	0.0898252	-0.0904825	-0.185493	-0.312447	1.46343	1.5708	0	0	-0.326386	-0.0852471	-0.0203891	0.400646	0.995071	0	0
3.42	-1.3062	1.5047	0.364576	0.870472	0.296084	0.939625	0.28747	-0.0472884	-0.351686	0.359602	-0.00784097	0	0	0.0340958	-0.166012	0.27275	0.880459	0.0315698	0	0	0.0679048	0.128599	0.0796643	-0.091321	-0.180755	-0.297128	1.46944	1.5708	0	0	-0.322423	-0.0801301	-0.0403827	0.396333	1.03547	0	0
3.43	-0.961706	1.51135	0.0138237	0.868804	0.2869	0.943648	0.243195	-0.0358953	-0.34891	0.334028	-0.00829396	0	0	0.0314488	-0.15547	0.274517	0.927015	0.00734268	0	0	0.0400665	0.123868	0.072892	-0.0887976	-0.170479	-0.287648	1.46516	1.5708	0	0	-0.272008	-0.0842695	-0.386764	0.275121	0.244648	0	0
3.44	-1.14852	1.49159	0.204865	0.868903	0.281995	0.941316	0.25239	-0.0142028	-0.359718	0.332006	-0.00207087	0	0	0.0907695	-0.160193	0.289368	1.01349	0.0193235	0	0	0.0575805	0.145153	0.067375	-0.104687	-0.178136	-0.293593	1.48388	1.5708	0	0	-0.322322	-0.0765251	-0.0107797	0.413066	0.987786	0	0
